<svg width="32" height="32" viewBox="0 0 32 32" fill="none" xmlns="http://www.w3.org/2000/svg">
<path fill-rule="evenodd" clip-rule="evenodd" d="M15.9985 28.7995C19.3933 28.7995 22.649 27.4509 25.0495 25.0504C27.4499 22.65 28.7985 19.3942 28.7985 15.9995C28.7985 12.6047 27.4499 9.34896 25.0495 6.9485C22.649 4.54803 19.3933 3.19946 15.9985 3.19946C12.6037 3.19946 9.34799 4.54803 6.94752 6.9485C4.54705 9.34896 3.19849 12.6047 3.19849 15.9995C3.19849 19.3942 4.54705 22.65 6.94752 25.0504C9.34799 27.4509 12.6037 28.7995 15.9985 28.7995ZM21.9297 14.8683L17.1297 10.0683C16.8296 9.76831 16.4228 9.59981 15.9985 9.59981C15.5742 9.59981 15.1673 9.76831 14.8673 10.0683L10.0673 14.8683C9.77583 15.17 9.61456 15.5742 9.61821 15.9937C9.62185 16.4132 9.79012 16.8145 10.0868 17.1112C10.3834 17.4078 10.7847 17.5761 11.2042 17.5797C11.6238 17.5834 12.0279 17.4221 12.3297 17.1307L14.3985 15.0619V20.7995C14.3985 21.2238 14.5671 21.6308 14.8671 21.9308C15.1672 22.2309 15.5741 22.3995 15.9985 22.3995C16.4228 22.3995 16.8298 22.2309 17.1299 21.9308C17.4299 21.6308 17.5985 21.2238 17.5985 20.7995V15.0619L19.6673 17.1307C19.9691 17.4221 20.3732 17.5834 20.7927 17.5797C21.2122 17.5761 21.6135 17.4078 21.9102 17.1112C22.2069 16.8145 22.3751 16.4132 22.3788 15.9937C22.3824 15.5742 22.2211 15.17 21.9297 14.8683Z" fill="#5A5A5A"/>
</svg>
