<svg width="21" height="22" viewBox="0 0 21 22" fill="none" xmlns="http://www.w3.org/2000/svg">
<path d="M8.07702 16.6065C7.95529 16.6061 7.83494 16.5799 7.72345 16.5294C7.61195 16.479 7.5117 16.4055 7.42893 16.3134L3.11419 11.5775C2.9529 11.4001 2.86649 11.1639 2.87398 10.9209C2.88148 10.6778 2.98225 10.4477 3.15414 10.2813C3.32602 10.1149 3.55494 10.0257 3.79053 10.0335C4.02613 10.0412 4.24909 10.1452 4.41038 10.3225L8.06815 14.3439L15.5346 5.91644C15.6104 5.81908 15.7046 5.73874 15.8116 5.68034C15.9185 5.62195 16.036 5.58673 16.1566 5.57685C16.2772 5.56697 16.3985 5.58264 16.5131 5.6229C16.6276 5.66316 16.733 5.72715 16.8227 5.81095C16.9124 5.89475 16.9846 5.99659 17.0347 6.11022C17.0849 6.22384 17.112 6.34684 17.1145 6.47168C17.1169 6.59651 17.0945 6.72054 17.0488 6.83614C17.0031 6.95174 16.9349 7.05648 16.8486 7.14391L8.734 16.3042C8.652 16.398 8.5521 16.4732 8.44057 16.5252C8.32904 16.5773 8.20829 16.6049 8.0859 16.6065H8.07702Z" fill="white"/>
</svg>
