<svg width="40" height="40" viewBox="0 0 40 40" fill="none" xmlns="http://www.w3.org/2000/svg">
<path fill-rule="evenodd" clip-rule="evenodd" d="M9.99988 4.00024C10.5303 4.00024 11.039 4.21096 11.4141 4.58603C11.7892 4.9611 11.9999 5.46981 11.9999 6.00024V8.00024H13.9999C14.5303 8.00024 15.039 8.21096 15.4141 8.58603C15.7892 8.9611 15.9999 9.46981 15.9999 10.0002C15.9999 10.5307 15.7892 11.0394 15.4141 11.4145C15.039 11.7895 14.5303 12.0002 13.9999 12.0002H11.9999V14.0002C11.9999 14.5307 11.7892 15.0394 11.4141 15.4145C11.039 15.7895 10.5303 16.0002 9.99988 16.0002C9.46944 16.0002 8.96074 15.7895 8.58566 15.4145C8.21059 15.0394 7.99988 14.5307 7.99988 14.0002V12.0002H5.99988C5.46944 12.0002 4.96074 11.7895 4.58566 11.4145C4.21059 11.0394 3.99988 10.5307 3.99988 10.0002C3.99988 9.46981 4.21059 8.9611 4.58566 8.58603C4.96074 8.21096 5.46944 8.00024 5.99988 8.00024H7.99988V6.00024C7.99988 5.46981 8.21059 4.9611 8.58566 4.58603C8.96074 4.21096 9.46944 4.00024 9.99988 4.00024ZM9.99988 24.0002C10.5303 24.0002 11.039 24.211 11.4141 24.586C11.7892 24.9611 11.9999 25.4698 11.9999 26.0002V28.0002H13.9999C14.5303 28.0002 15.039 28.211 15.4141 28.586C15.7892 28.9611 15.9999 29.4698 15.9999 30.0002C15.9999 30.5307 15.7892 31.0394 15.4141 31.4145C15.039 31.7895 14.5303 32.0002 13.9999 32.0002H11.9999V34.0002C11.9999 34.5307 11.7892 35.0394 11.4141 35.4145C11.039 35.7895 10.5303 36.0002 9.99988 36.0002C9.46944 36.0002 8.96074 35.7895 8.58566 35.4145C8.21059 35.0394 7.99988 34.5307 7.99988 34.0002V32.0002H5.99988C5.46944 32.0002 4.96074 31.7895 4.58566 31.4145C4.21059 31.0394 3.99988 30.5307 3.99988 30.0002C3.99988 29.4698 4.21059 28.9611 4.58566 28.586C4.96074 28.211 5.46944 28.0002 5.99988 28.0002H7.99988V26.0002C7.99988 25.4698 8.21059 24.9611 8.58566 24.586C8.96074 24.211 9.46944 24.0002 9.99988 24.0002ZM23.9999 4.00024C24.4413 4.0001 24.8703 4.14597 25.2201 4.41512C25.5699 4.68427 25.8209 5.06157 25.9339 5.48824L28.2919 14.4002L34.9999 18.2682C35.3039 18.4438 35.5563 18.6963 35.7319 19.0003C35.9074 19.3043 35.9998 19.6492 35.9998 20.0002C35.9998 20.3513 35.9074 20.6962 35.7319 21.0002C35.5563 21.3042 35.3039 21.5567 34.9999 21.7322L28.2919 25.6022L25.9319 34.5122C25.8187 34.9385 25.5678 35.3154 25.2182 35.5843C24.8686 35.8531 24.4399 35.9989 23.9989 35.9989C23.5578 35.9989 23.1292 35.8531 22.7796 35.5843C22.43 35.3154 22.1791 34.9385 22.0659 34.5122L19.7079 25.6002L12.9999 21.7322C12.6959 21.5567 12.4434 21.3042 12.2679 21.0002C12.0924 20.6962 12 20.3513 12 20.0002C12 19.6492 12.0924 19.3043 12.2679 19.0003C12.4434 18.6963 12.6959 18.4438 12.9999 18.2682L19.7079 14.3982L22.0679 5.48824C22.1808 5.06191 22.4314 4.68484 22.7809 4.41573C23.1303 4.14661 23.5588 4.00054 23.9999 4.00024Z" fill="#FFD706"/>
</svg>
